<?xml version="1.0" encoding="UTF-8" standalone="no"?>
<!DOCTYPE svg PUBLIC "-//W3C//DTD SVG 1.1//EN" "http://www.w3.org/Graphics/SVG/1.1/DTD/svg11.dtd">
<svg xmlns="http://www.w3.org/2000/svg" xmlns:dc="http://purl.org/dc/elements/1.1/" version="1.1" xmlns:xl="http://www.w3.org/1999/xlink" viewBox="399.5 371.5 273.5 249" width="273.5" height="249">
  <defs/>
  <g id="Canvas_1" stroke-dasharray="none" fill-opacity="1" stroke="none" stroke-opacity="1" fill="none">
    <title>Canvas 1</title>
    <g id="Canvas_1_Layer_1">
      <title>Layer 1</title>
      <g id="Graphic_2">
        <path d="M 417.03125 542 L 638.4375 542 C 655.46875 542 655.46875 542 655.46875 546.875 L 655.46875 544.4375 C 663.9844 544.4375 663.9844 544.4375 663.9844 549.3125 L 663.9844 546.875 C 672.5 546.875 672.5 546.875 672.5 551.75 L 672.5 615.125 C 672.5 620 672.5 620 655.46875 620 L 434.0625 620 C 417.03125 620 417.03125 620 417.03125 617.5625 C 408.51562 617.5625 408.51562 617.5625 408.51562 615.125 C 400 615.125 400 615.125 400 610.25 L 400 546.875 C 400 542 400 542 417.03125 542 Z" fill="#315d88"/>
        <path d="M 417.03125 542 L 638.4375 542 C 655.46875 542 655.46875 542 655.46875 546.875 L 655.46875 610.25 C 655.46875 615.125 655.46875 615.125 638.4375 615.125 L 417.03125 615.125 C 400 615.125 400 615.125 400 610.25 L 400 546.875 C 400 542 400 542 417.03125 542 M 655.46875 544.4375 C 663.9844 544.4375 663.9844 544.4375 663.9844 549.3125 L 663.9844 615.125 C 663.9844 617.5625 663.9844 617.5625 646.9531 617.5625 L 425.5469 617.5625 C 408.51562 617.5625 408.51562 617.5625 408.51562 615.125 M 663.9844 546.875 C 672.5 546.875 672.5 546.875 672.5 551.75 L 672.5 615.125 C 672.5 620 672.5 620 655.46875 620 L 434.0625 620 C 417.03125 620 417.03125 620 417.03125 617.5625" stroke="gray" stroke-linecap="round" stroke-linejoin="round" stroke-width="1"/>
        <text transform="translate(410.45 567.681)" fill="white">
          <tspan font-family="Helvetica Neue" font-size="16" fill="white" x="35.62975" y="15">Security Foundations</tspan>
        </text>
      </g>
      <g id="Graphic_3">
        <path d="M 417.03125 457 L 638.4375 457 C 655.46875 457 655.46875 457 655.46875 461.875 L 655.46875 459.4375 C 663.9844 459.4375 663.9844 459.4375 663.9844 464.3125 L 663.9844 461.875 C 672.5 461.875 672.5 461.875 672.5 466.75 L 672.5 530.125 C 672.5 535 672.5 535 655.46875 535 L 434.0625 535 C 417.03125 535 417.03125 535 417.03125 532.5625 C 408.51562 532.5625 408.51562 532.5625 408.51562 530.125 C 400 530.125 400 530.125 400 525.25 L 400 461.875 C 400 457 400 457 417.03125 457 Z" fill="#f57c3a"/>
        <path d="M 417.03125 457 L 638.4375 457 C 655.46875 457 655.46875 457 655.46875 461.875 L 655.46875 525.25 C 655.46875 530.125 655.46875 530.125 638.4375 530.125 L 417.03125 530.125 C 400 530.125 400 530.125 400 525.25 L 400 461.875 C 400 457 400 457 417.03125 457 M 655.46875 459.4375 C 663.9844 459.4375 663.9844 459.4375 663.9844 464.3125 L 663.9844 530.125 C 663.9844 532.5625 663.9844 532.5625 646.9531 532.5625 L 425.5469 532.5625 C 408.51562 532.5625 408.51562 532.5625 408.51562 530.125 M 663.9844 461.875 C 672.5 461.875 672.5 461.875 672.5 466.75 L 672.5 530.125 C 672.5 535 672.5 535 655.46875 535 L 434.0625 535 C 417.03125 535 417.03125 535 417.03125 532.5625" stroke="gray" stroke-linecap="round" stroke-linejoin="round" stroke-width="1"/>
        <text transform="translate(410.45 473.457)" fill="white">
          <tspan font-family="Helvetica Neue" font-size="16" fill="white" x="25.541752" y="15">Programming Language </tspan>
          <tspan font-family="Helvetica Neue" font-size="16" fill="white" x="23.197752" y="33.448">Abstractions for Security</tspan>
        </text>
      </g>
      <g id="Graphic_4">
        <path d="M 417.03125 372 L 638.4375 372 C 655.46875 372 655.46875 372 655.46875 376.875 L 655.46875 374.4375 C 663.9844 374.4375 663.9844 374.4375 663.9844 379.3125 L 663.9844 376.875 C 672.5 376.875 672.5 376.875 672.5 381.75 L 672.5 445.125 C 672.5 450 672.5 450 655.46875 450 L 434.0625 450 C 417.03125 450 417.03125 450 417.03125 447.5625 C 408.51562 447.5625 408.51562 447.5625 408.51562 445.125 C 400 445.125 400 445.125 400 440.25 L 400 376.875 C 400 372 400 372 417.03125 372 Z" fill="#00bc8c"/>
        <path d="M 417.03125 372 L 638.4375 372 C 655.46875 372 655.46875 372 655.46875 376.875 L 655.46875 440.25 C 655.46875 445.125 655.46875 445.125 638.4375 445.125 L 417.03125 445.125 C 400 445.125 400 445.125 400 440.25 L 400 376.875 C 400 372 400 372 417.03125 372 M 655.46875 374.4375 C 663.9844 374.4375 663.9844 374.4375 663.9844 379.3125 L 663.9844 445.125 C 663.9844 447.5625 663.9844 447.5625 646.9531 447.5625 L 425.5469 447.5625 C 408.51562 447.5625 408.51562 447.5625 408.51562 445.125 M 663.9844 376.875 C 672.5 376.875 672.5 376.875 672.5 381.75 L 672.5 445.125 C 672.5 450 672.5 450 655.46875 450 L 434.0625 450 C 417.03125 450 417.03125 450 417.03125 447.5625" stroke="gray" stroke-linecap="round" stroke-linejoin="round" stroke-width="1"/>
        <text transform="translate(410.45 397.681)" fill="white">
          <tspan font-family="Helvetica Neue" font-size="16" fill="white" x="2.3017515" y="15">Secure Decentralized Systems</tspan>
        </text>
      </g>
    </g>
  </g>
</svg>
